<svg width="612" height="171" viewBox="0 0 612 171" fill="none" xmlns="http://www.w3.org/2000/svg">
<g filter="url(#filter0_d_250_371)">
<path d="M100.689 6.5L99.9367 6.16081L99.1843 6.5H96.4367V7.73859L22.5616 41.041L20.5 41.9704V44.2318V112.695V114.957L22.5616 115.886L96.4367 149.189V150.427H99.1843L99.9367 150.766L100.689 150.427H524.453L525.205 150.766L525.957 150.427H528.705V149.189L602.58 115.886L604.642 114.957V112.695V44.2318V41.9704L602.58 41.041L528.705 7.73859V6.5H525.957L525.205 6.16081L524.453 6.5H100.689Z" stroke="url(#paint0_linear_250_371)" stroke-width="7" shape-rendering="crispEdges"/>
</g>
<path d="M119.524 61.0909H128.627L138.24 84.5455H138.649L148.263 61.0909H157.365V96H150.206V73.2784H149.916L140.882 95.8295H136.007L126.973 73.1932H126.683V96H119.524V61.0909ZM163.446 96V61.0909H186.969V67.1761H170.827V75.4943H185.759V81.5795H170.827V89.9148H187.037V96H163.446ZM205.212 96H192.837V61.0909H205.314C208.825 61.0909 211.848 61.7898 214.382 63.1875C216.916 64.5739 218.865 66.5682 220.229 69.1705C221.604 71.7727 222.291 74.8864 222.291 78.5114C222.291 82.1477 221.604 85.2727 220.229 87.8864C218.865 90.5 216.905 92.5057 214.348 93.9034C211.803 95.3011 208.757 96 205.212 96ZM200.218 89.6761H204.905C207.087 89.6761 208.922 89.2898 210.411 88.517C211.911 87.733 213.036 86.5227 213.786 84.8864C214.547 83.2386 214.928 81.1136 214.928 78.5114C214.928 75.9318 214.547 73.8239 213.786 72.1875C213.036 70.5511 211.916 69.3466 210.428 68.5739C208.939 67.8011 207.104 67.4148 204.922 67.4148H200.218V89.6761ZM235.139 61.0909V96H227.759V61.0909H235.139ZM247.229 96H239.32L251.371 61.0909H260.882L272.916 96H265.007L256.263 69.0682H255.99L247.229 96ZM246.735 82.2784H265.416V88.0398H246.735V82.2784ZM288.227 96V61.0909H302C304.648 61.0909 306.904 61.5966 308.767 62.608C310.631 63.608 312.051 65 313.029 66.7841C314.017 68.5568 314.512 70.6023 314.512 72.9205C314.512 75.2386 314.012 77.2841 313.012 79.0568C312.012 80.8295 310.563 82.2102 308.665 83.1989C306.779 84.1875 304.494 84.6818 301.813 84.6818H293.034V78.767H300.619C302.04 78.767 303.21 78.5227 304.131 78.0341C305.063 77.5341 305.756 76.8466 306.21 75.9716C306.676 75.0852 306.909 74.0682 306.909 72.9205C306.909 71.7614 306.676 70.75 306.21 69.8864C305.756 69.0114 305.063 68.3352 304.131 67.858C303.199 67.3693 302.017 67.125 300.585 67.125H295.608V96H288.227ZM321.291 96H313.382L325.433 61.0909H334.945L346.979 96H339.07L330.325 69.0682H330.053L321.291 96ZM320.797 82.2784H339.479V88.0398H320.797V82.2784ZM351.181 96V61.0909H364.953C367.59 61.0909 369.84 61.5625 371.703 62.5057C373.578 63.4375 375.004 64.7614 375.982 66.4773C376.97 68.1818 377.465 70.1875 377.465 72.4943C377.465 74.8125 376.965 76.8068 375.965 78.4773C374.965 80.1364 373.516 81.4091 371.618 82.2955C369.732 83.1818 367.448 83.625 364.766 83.625H355.544V77.6932H363.573C364.982 77.6932 366.152 77.5 367.084 77.1136C368.016 76.7273 368.709 76.1477 369.164 75.375C369.629 74.6023 369.862 73.642 369.862 72.4943C369.862 71.3352 369.629 70.358 369.164 69.5625C368.709 68.767 368.01 68.1648 367.067 67.7557C366.135 67.3352 364.959 67.125 363.539 67.125H358.561V96H351.181ZM370.033 80.1136L378.709 96H370.561L362.073 80.1136H370.033ZM381.351 67.1761V61.0909H410.021V67.1761H399.334V96H392.039V67.1761H381.351ZM443.942 61.0909V96H437.567L422.379 74.0284H422.124V96H414.743V61.0909H421.22L436.289 83.0455H436.595V61.0909H443.942ZM450.04 96V61.0909H473.563V67.1761H457.421V75.4943H472.352V81.5795H457.421V89.9148H473.631V96H450.04ZM479.431 96V61.0909H493.203C495.84 61.0909 498.09 61.5625 499.953 62.5057C501.828 63.4375 503.254 64.7614 504.232 66.4773C505.22 68.1818 505.715 70.1875 505.715 72.4943C505.715 74.8125 505.215 76.8068 504.215 78.4773C503.215 80.1364 501.766 81.4091 499.868 82.2955C497.982 83.1818 495.698 83.625 493.016 83.625H483.794V77.6932H491.823C493.232 77.6932 494.402 77.5 495.334 77.1136C496.266 76.7273 496.959 76.1477 497.414 75.375C497.879 74.6023 498.112 73.642 498.112 72.4943C498.112 71.3352 497.879 70.358 497.414 69.5625C496.959 68.767 496.26 68.1648 495.317 67.7557C494.385 67.3352 493.209 67.125 491.789 67.125H486.811V96H479.431ZM498.283 80.1136L506.959 96H498.811L490.323 80.1136H498.283Z" fill="url(#paint1_linear_250_371)"/>
<defs>
<filter id="filter0_d_250_371" x="0" y="0" width="611.142" height="170.927" filterUnits="userSpaceOnUse" color-interpolation-filters="sRGB">
<feFlood flood-opacity="0" result="BackgroundImageFix"/>
<feColorMatrix in="SourceAlpha" type="matrix" values="0 0 0 0 0 0 0 0 0 0 0 0 0 0 0 0 0 0 127 0" result="hardAlpha"/>
<feOffset dx="-7" dy="7"/>
<feGaussianBlur stdDeviation="5"/>
<feComposite in2="hardAlpha" operator="out"/>
<feColorMatrix type="matrix" values="0 0 0 0 0 0 0 0 0 0 0 0 0 0 0 0 0 0 0.25 0"/>
<feBlend mode="normal" in2="BackgroundImageFix" result="effect1_dropShadow_250_371"/>
<feBlend mode="normal" in="SourceGraphic" in2="effect1_dropShadow_250_371" result="shape"/>
</filter>
<linearGradient id="paint0_linear_250_371" x1="-577.456" y1="79.1035" x2="793.429" y2="78.4636" gradientUnits="userSpaceOnUse">
<stop stop-color="#30E7ED"/>
<stop offset="1" stop-color="white"/>
</linearGradient>
<linearGradient id="paint1_linear_250_371" x1="-446.019" y1="78" x2="718.273" y2="78.0001" gradientUnits="userSpaceOnUse">
<stop stop-color="#30E7ED"/>
<stop offset="0.932178" stop-color="white"/>
</linearGradient>
</defs>
</svg>
