<svg width="612" height="171" viewBox="0 0 612 171" fill="none" xmlns="http://www.w3.org/2000/svg">
<g filter="url(#filter0_d_250_370)">
<path d="M100.689 6.5L99.9367 6.16081L99.1843 6.5H96.4367V7.73859L22.5616 41.041L20.5 41.9704V44.2318V112.695V114.957L22.5616 115.886L96.4367 149.189V150.427H99.1843L99.9367 150.766L100.689 150.427H524.453L525.205 150.766L525.957 150.427H528.705V149.189L602.58 115.886L604.642 114.957V112.695V44.2318V41.9704L602.58 41.041L528.705 7.73859V6.5H525.957L525.205 6.16081L524.453 6.5H100.689Z" stroke="url(#paint0_linear_250_370)" stroke-width="7" shape-rendering="crispEdges"/>
</g>
<path d="M148.329 71.1307C148.193 69.7557 147.607 68.6875 146.573 67.9261C145.539 67.1648 144.136 66.7841 142.363 66.7841C141.159 66.7841 140.142 66.9545 139.312 67.2955C138.482 67.625 137.846 68.0852 137.403 68.6761C136.971 69.267 136.755 69.9375 136.755 70.6875C136.732 71.3125 136.863 71.858 137.147 72.3239C137.443 72.7898 137.846 73.1932 138.357 73.5341C138.869 73.8636 139.46 74.1534 140.13 74.4034C140.801 74.642 141.517 74.8466 142.278 75.017L145.414 75.767C146.937 76.108 148.335 76.5625 149.607 77.1307C150.88 77.6989 151.982 78.3977 152.914 79.2273C153.846 80.0568 154.568 81.0341 155.079 82.1591C155.602 83.2841 155.869 84.5739 155.88 86.0284C155.869 88.1648 155.323 90.017 154.244 91.5852C153.176 93.142 151.63 94.3523 149.607 95.2159C147.596 96.0682 145.17 96.4943 142.329 96.4943C139.511 96.4943 137.056 96.0625 134.965 95.1989C132.886 94.3352 131.261 93.0568 130.09 91.3636C128.931 89.6591 128.323 87.5511 128.267 85.0398H135.409C135.488 86.2102 135.823 87.1875 136.414 87.9716C137.017 88.7443 137.818 89.3295 138.818 89.7273C139.829 90.1136 140.971 90.3068 142.244 90.3068C143.494 90.3068 144.579 90.125 145.499 89.7614C146.431 89.3977 147.153 88.892 147.664 88.2443C148.176 87.5966 148.431 86.8523 148.431 86.0114C148.431 85.2273 148.198 84.5682 147.732 84.0341C147.278 83.5 146.607 83.0455 145.721 82.6705C144.846 82.2955 143.772 81.9545 142.499 81.6477L138.698 80.6932C135.755 79.9773 133.431 78.858 131.727 77.3352C130.022 75.8125 129.176 73.7614 129.187 71.1818C129.176 69.0682 129.738 67.2216 130.874 65.642C132.022 64.0625 133.596 62.8295 135.596 61.9432C137.596 61.0568 139.869 60.6136 142.414 60.6136C145.005 60.6136 147.267 61.0568 149.198 61.9432C151.142 62.8295 152.653 64.0625 153.732 65.642C154.812 67.2216 155.369 69.0511 155.403 71.1307H148.329ZM182.407 61.0909H189.788V83.7614C189.788 86.3068 189.18 88.5341 187.964 90.4432C186.759 92.3523 185.072 93.8409 182.901 94.9091C180.731 95.9659 178.203 96.4943 175.316 96.4943C172.419 96.4943 169.884 95.9659 167.714 94.9091C165.544 93.8409 163.856 92.3523 162.651 90.4432C161.447 88.5341 160.845 86.3068 160.845 83.7614V61.0909H168.225V83.1307C168.225 84.4602 168.515 85.642 169.095 86.6761C169.686 87.7102 170.515 88.5227 171.583 89.1136C172.651 89.7045 173.896 90 175.316 90C176.748 90 177.992 89.7045 179.049 89.1136C180.117 88.5227 180.941 87.7102 181.521 86.6761C182.112 85.642 182.407 84.4602 182.407 83.1307V61.0909ZM195.86 96V61.0909H209.633C212.281 61.0909 214.536 61.5966 216.4 62.608C218.264 63.608 219.684 65 220.661 66.7841C221.65 68.5568 222.144 70.6023 222.144 72.9205C222.144 75.2386 221.644 77.2841 220.644 79.0568C219.644 80.8295 218.195 82.2102 216.298 83.1989C214.411 84.1875 212.127 84.6818 209.445 84.6818H200.667V78.767H208.252C209.673 78.767 210.843 78.5227 211.764 78.0341C212.695 77.5341 213.389 76.8466 213.843 75.9716C214.309 75.0852 214.542 74.0682 214.542 72.9205C214.542 71.7614 214.309 70.75 213.843 69.8864C213.389 69.0114 212.695 68.3352 211.764 67.858C210.832 67.3693 209.65 67.125 208.218 67.125H203.241V96H195.86ZM226.938 96V61.0909H240.711C243.359 61.0909 245.615 61.5966 247.478 62.608C249.342 63.608 250.762 65 251.74 66.7841C252.728 68.5568 253.222 70.6023 253.222 72.9205C253.222 75.2386 252.722 77.2841 251.722 79.0568C250.722 80.8295 249.274 82.2102 247.376 83.1989C245.49 84.1875 243.205 84.6818 240.524 84.6818H231.745V78.767H239.33C240.751 78.767 241.921 78.5227 242.842 78.0341C243.774 77.5341 244.467 76.8466 244.921 75.9716C245.387 75.0852 245.62 74.0682 245.62 72.9205C245.62 71.7614 245.387 70.75 244.921 69.8864C244.467 69.0114 243.774 68.3352 242.842 67.858C241.91 67.3693 240.728 67.125 239.296 67.125H234.319V96H226.938ZM290.096 78.5455C290.096 82.3523 289.374 85.5909 287.931 88.2614C286.499 90.9318 284.545 92.9716 282.068 94.3807C279.602 95.7784 276.829 96.4773 273.749 96.4773C270.647 96.4773 267.863 95.7727 265.397 94.3636C262.931 92.9545 260.982 90.9148 259.551 88.2443C258.119 85.5739 257.403 82.3409 257.403 78.5455C257.403 74.7386 258.119 71.5 259.551 68.8295C260.982 66.1591 262.931 64.125 265.397 62.7273C267.863 61.3182 270.647 60.6136 273.749 60.6136C276.829 60.6136 279.602 61.3182 282.068 62.7273C284.545 64.125 286.499 66.1591 287.931 68.8295C289.374 71.5 290.096 74.7386 290.096 78.5455ZM282.613 78.5455C282.613 76.0795 282.244 74 281.505 72.3068C280.778 70.6136 279.749 69.3295 278.42 68.4545C277.09 67.5795 275.534 67.142 273.749 67.142C271.965 67.142 270.409 67.5795 269.079 68.4545C267.749 69.3295 266.715 70.6136 265.977 72.3068C265.249 74 264.886 76.0795 264.886 78.5455C264.886 81.0114 265.249 83.0909 265.977 84.7841C266.715 86.4773 267.749 87.7614 269.079 88.6364C270.409 89.5114 271.965 89.9489 273.749 89.9489C275.534 89.9489 277.09 89.5114 278.42 88.6364C279.749 87.7614 280.778 86.4773 281.505 84.7841C282.244 83.0909 282.613 81.0114 282.613 78.5455ZM295.563 96V61.0909H309.336C311.972 61.0909 314.222 61.5625 316.086 62.5057C317.961 63.4375 319.387 64.7614 320.365 66.4773C321.353 68.1818 321.847 70.1875 321.847 72.4943C321.847 74.8125 321.347 76.8068 320.347 78.4773C319.347 80.1364 317.899 81.4091 316.001 82.2955C314.115 83.1818 311.83 83.625 309.149 83.625H299.927V77.6932H307.955C309.365 77.6932 310.535 77.5 311.467 77.1136C312.399 76.7273 313.092 76.1477 313.546 75.375C314.012 74.6023 314.245 73.642 314.245 72.4943C314.245 71.3352 314.012 70.358 313.546 69.5625C313.092 68.767 312.393 68.1648 311.45 67.7557C310.518 67.3352 309.342 67.125 307.921 67.125H302.944V96H295.563ZM314.416 80.1136L323.092 96H314.944L306.455 80.1136H314.416ZM325.734 67.1761V61.0909H354.404V67.1761H343.717V96H336.421V67.1761H325.734ZM359.126 96V61.0909H382.649V67.1761H366.507V75.4943H381.438V81.5795H366.507V89.9148H382.717V96H359.126ZM400.892 96H388.517V61.0909H400.994C404.505 61.0909 407.528 61.7898 410.062 63.1875C412.596 64.5739 414.545 66.5682 415.909 69.1705C417.284 71.7727 417.971 74.8864 417.971 78.5114C417.971 82.1477 417.284 85.2727 415.909 87.8864C414.545 90.5 412.585 92.5057 410.028 93.9034C407.482 95.3011 404.437 96 400.892 96ZM395.897 89.6761H400.585C402.767 89.6761 404.602 89.2898 406.09 88.517C407.59 87.733 408.715 86.5227 409.465 84.8864C410.227 83.2386 410.607 81.1136 410.607 78.5114C410.607 75.9318 410.227 73.8239 409.465 72.1875C408.715 70.5511 407.596 69.3466 406.107 68.5739C404.619 67.8011 402.784 67.4148 400.602 67.4148H395.897V89.6761ZM434.548 96V61.0909H448.525C451.093 61.0909 453.235 61.4716 454.951 62.233C456.667 62.9943 457.957 64.0511 458.82 65.4034C459.684 66.7443 460.116 68.2898 460.116 70.0398C460.116 71.4034 459.843 72.6023 459.298 73.6364C458.752 74.6591 458.002 75.5 457.048 76.1591C456.105 76.8068 455.025 77.267 453.809 77.5398V77.8807C455.139 77.9375 456.383 78.3125 457.542 79.0057C458.713 79.6989 459.661 80.6705 460.389 81.9205C461.116 83.1591 461.48 84.6364 461.48 86.3523C461.48 88.2045 461.019 89.858 460.099 91.3125C459.19 92.7557 457.843 93.8977 456.059 94.7386C454.275 95.5795 452.076 96 449.463 96H434.548ZM441.928 89.9659H447.945C450.002 89.9659 451.502 89.5739 452.445 88.7898C453.389 87.9943 453.86 86.9375 453.86 85.6193C453.86 84.6534 453.627 83.8011 453.161 83.0625C452.695 82.3239 452.031 81.7443 451.167 81.3239C450.315 80.9034 449.298 80.6932 448.116 80.6932H441.928V89.9659ZM441.928 75.6989H447.4C448.411 75.6989 449.309 75.5227 450.093 75.1705C450.889 74.8068 451.514 74.2955 451.968 73.6364C452.434 72.9773 452.667 72.1875 452.667 71.267C452.667 70.0057 452.218 68.9886 451.32 68.2159C450.434 67.4432 449.173 67.0568 447.536 67.0568H441.928V75.6989ZM464.237 61.0909H472.504L480.464 76.125H480.805L488.765 61.0909H497.032L484.299 83.6591V96H476.97V83.6591L464.237 61.0909Z" fill="url(#paint1_linear_250_370)"/>
<defs>
<filter id="filter0_d_250_370" x="0" y="0" width="611.142" height="170.927" filterUnits="userSpaceOnUse" color-interpolation-filters="sRGB">
<feFlood flood-opacity="0" result="BackgroundImageFix"/>
<feColorMatrix in="SourceAlpha" type="matrix" values="0 0 0 0 0 0 0 0 0 0 0 0 0 0 0 0 0 0 127 0" result="hardAlpha"/>
<feOffset dx="-7" dy="7"/>
<feGaussianBlur stdDeviation="5"/>
<feComposite in2="hardAlpha" operator="out"/>
<feColorMatrix type="matrix" values="0 0 0 0 0 0 0 0 0 0 0 0 0 0 0 0 0 0 0.25 0"/>
<feBlend mode="normal" in2="BackgroundImageFix" result="effect1_dropShadow_250_370"/>
<feBlend mode="normal" in="SourceGraphic" in2="effect1_dropShadow_250_370" result="shape"/>
</filter>
<linearGradient id="paint0_linear_250_370" x1="-577.456" y1="79.1035" x2="793.429" y2="78.4636" gradientUnits="userSpaceOnUse">
<stop stop-color="#30E7ED"/>
<stop offset="1" stop-color="white"/>
</linearGradient>
<linearGradient id="paint1_linear_250_370" x1="-446.019" y1="78" x2="718.273" y2="78.0001" gradientUnits="userSpaceOnUse">
<stop stop-color="#30E7ED"/>
<stop offset="0.932178" stop-color="white"/>
</linearGradient>
</defs>
</svg>
