<svg width="413" height="171" viewBox="0 0 413 171" fill="none" xmlns="http://www.w3.org/2000/svg">
<g filter="url(#filter0_d_250_386)">
<path d="M74.9522 6.5L73.8665 5.75469L72.7807 6.5H70.3665V8.15733L22.0192 41.3463L20.5 42.3891V44.2318V112.695V114.538L22.0192 115.581L70.3665 148.77V150.427H72.7807L73.8665 151.173L74.9522 150.427H352.048L353.134 151.173L354.219 150.427H356.634V148.77L404.981 115.581L406.5 114.538V112.695V44.2318V42.3891L404.981 41.3463L356.634 8.15733V6.5H354.219L353.134 5.75469L352.048 6.5H74.9522Z" stroke="url(#paint0_linear_250_386)" stroke-width="7" shape-rendering="crispEdges"/>
</g>
<path d="M120.503 67.1761V61.0909H149.174V67.1761H138.486V96H131.191V67.1761H120.503ZM153.896 96V61.0909H177.418V67.1761H161.276V75.4943H176.208V81.5795H161.276V89.9148H177.486V96H153.896ZM189.303 96H181.394L193.445 61.0909H202.957L214.991 96H207.082L198.337 69.0682H198.065L189.303 96ZM188.809 82.2784H207.491V88.0398H188.809V82.2784ZM237.333 71.1307C237.197 69.7557 236.611 68.6875 235.577 67.9261C234.543 67.1648 233.14 66.7841 231.367 66.7841C230.163 66.7841 229.146 66.9545 228.316 67.2955C227.486 67.625 226.85 68.0852 226.407 68.6761C225.975 69.267 225.759 69.9375 225.759 70.6875C225.736 71.3125 225.867 71.858 226.151 72.3239C226.447 72.7898 226.85 73.1932 227.361 73.5341C227.873 73.8636 228.464 74.1534 229.134 74.4034C229.805 74.642 230.521 74.8466 231.282 75.017L234.418 75.767C235.941 76.108 237.339 76.5625 238.611 77.1307C239.884 77.6989 240.986 78.3977 241.918 79.2273C242.85 80.0568 243.572 81.0341 244.083 82.1591C244.606 83.2841 244.873 84.5739 244.884 86.0284C244.873 88.1648 244.327 90.017 243.248 91.5852C242.18 93.142 240.634 94.3523 238.611 95.2159C236.6 96.0682 234.174 96.4943 231.333 96.4943C228.515 96.4943 226.06 96.0625 223.969 95.1989C221.89 94.3352 220.265 93.0568 219.094 91.3636C217.935 89.6591 217.327 87.5511 217.271 85.0398H224.413C224.492 86.2102 224.827 87.1875 225.418 87.9716C226.021 88.7443 226.822 89.3295 227.822 89.7273C228.833 90.1136 229.975 90.3068 231.248 90.3068C232.498 90.3068 233.583 90.125 234.503 89.7614C235.435 89.3977 236.157 88.892 236.668 88.2443C237.18 87.5966 237.435 86.8523 237.435 86.0114C237.435 85.2273 237.202 84.5682 236.736 84.0341C236.282 83.5 235.611 83.0455 234.725 82.6705C233.85 82.2955 232.776 81.9545 231.503 81.6477L227.702 80.6932C224.759 79.9773 222.435 78.858 220.731 77.3352C219.026 75.8125 218.18 73.7614 218.191 71.1818C218.18 69.0682 218.742 67.2216 219.878 65.642C221.026 64.0625 222.6 62.8295 224.6 61.9432C226.6 61.0568 228.873 60.6136 231.418 60.6136C234.009 60.6136 236.271 61.0568 238.202 61.9432C240.146 62.8295 241.657 64.0625 242.736 65.642C243.816 67.2216 244.373 69.0511 244.407 71.1307H237.333ZM249.849 96V61.0909H273.371V67.1761H257.229V75.4943H272.161V81.5795H257.229V89.9148H273.44V96H249.849ZM279.239 96V61.0909H293.012C295.648 61.0909 297.898 61.5625 299.762 62.5057C301.637 63.4375 303.063 64.7614 304.04 66.4773C305.029 68.1818 305.523 70.1875 305.523 72.4943C305.523 74.8125 305.023 76.8068 304.023 78.4773C303.023 80.1364 301.575 81.4091 299.677 82.2955C297.79 83.1818 295.506 83.625 292.825 83.625H283.603V77.6932H291.631C293.04 77.6932 294.211 77.5 295.143 77.1136C296.075 76.7273 296.768 76.1477 297.222 75.375C297.688 74.6023 297.921 73.642 297.921 72.4943C297.921 71.3352 297.688 70.358 297.222 69.5625C296.768 68.767 296.069 68.1648 295.126 67.7557C294.194 67.3352 293.018 67.125 291.597 67.125H286.62V96H279.239ZM298.092 80.1136L306.768 96H298.62L290.131 80.1136H298.092Z" fill="url(#paint1_linear_250_386)"/>
<defs>
<filter id="filter0_d_250_386" x="0" y="0" width="413" height="170.927" filterUnits="userSpaceOnUse" color-interpolation-filters="sRGB">
<feFlood flood-opacity="0" result="BackgroundImageFix"/>
<feColorMatrix in="SourceAlpha" type="matrix" values="0 0 0 0 0 0 0 0 0 0 0 0 0 0 0 0 0 0 127 0" result="hardAlpha"/>
<feOffset dx="-7" dy="7"/>
<feGaussianBlur stdDeviation="5"/>
<feComposite in2="hardAlpha" operator="out"/>
<feColorMatrix type="matrix" values="0 0 0 0 0 0 0 0 0 0 0 0 0 0 0 0 0 0 0.25 0"/>
<feBlend mode="normal" in2="BackgroundImageFix" result="effect1_dropShadow_250_386"/>
<feBlend mode="normal" in="SourceGraphic" in2="effect1_dropShadow_250_386" result="shape"/>
</filter>
<linearGradient id="paint0_linear_250_386" x1="-370.967" y1="79.1035" x2="529.272" y2="78.8275" gradientUnits="userSpaceOnUse">
<stop stop-color="#30E7ED"/>
<stop offset="1" stop-color="white"/>
</linearGradient>
<linearGradient id="paint1_linear_250_386" x1="-284.654" y1="78" x2="479.918" y2="78" gradientUnits="userSpaceOnUse">
<stop stop-color="#30E7ED"/>
<stop offset="0.932178" stop-color="white"/>
</linearGradient>
</defs>
</svg>
